<svg xmlns='http://www.w3.org/2000/svg' width='320' height='180' viewBox='0 0 427 240'><rect width='427' height='240' fill='#fff'/><path fill="#182f7c" d="m135.52859,179.85488c2.454,-16.946 -5.4147,-27.35 -8.5185,-44c-3.50916,-18.8241 -0.7455,-37.7123 7.434,-55c5.1714,-10.9297 13.0048,-20.7664 22.0845,-28.6844c8.482,-7.3967 18.375,-13.2267 29,-16.9617c76.419,-26.8635 143.961,61.1989 104.557,129.6461c-6.979,12.123 -16.87,22.613 -28.557,30.289c-18.814,12.357 -42.87,17.858 -65,12.812c-15.7568,-3.592 -27.5609,-14.277 -44,-10.101l0,2c32.5954,21.934 74.59,28.388 110,8.107c62.847,-35.994 67.694,-130.8156 7,-171.5658c-49.089,-32.9588 -118.6379,-15.14325 -144.7289,38.4588c-12.16437,24.9908 -13.60681,54.918 -3.8354,81c2.9761,7.944 7.0244,19.464 14.5643,24z"/><path fill="#e7012f" d="m265.52859,51.85488c-22.339,22.2096 -51.676,25.2205 -77,41.7193c-31.0491,20.2289 -51.0339,69.1287 -53,105.2807c15.5865,-18.326 24.6722,-41.047 43.0033,-57.803c12.1926,-11.146 25.688,-20.083 40.9967,-26.3235c10.446,-4.2582 21.88,-5.5523 30.94,-12.7954c11.924,-9.5332 20.613,-35.2185 15.06,-50.0781z"/><path fill="#fdd10d" d="m142.52859,192.85488c14.0987,-10.263 24.7887,-21.668 41,-29.206c28.7821,-13.385 59.676,-11.226 69,-48.794c-39.7195,7.494 -68.4009,19.991 -93.8841,53c-5.9128,7.659 -13.1807,15.64 -16.1159,25z"/><path fill="#189b46" d="m222.52859,160.85488c-9.3335,3.353 -19.3947,1.785 -29,3.495c-17.8872,3.184 -45.6795,19.038 -54,35.505c9.3374,-3.962 17.8144,-8.16 28,-9.671c13.3509,-1.981 26.8788,-0.276 39,-7.455c6.4792,-3.838 17.743,-13.324 16,-21.874z"/><path fill="#182f7c" d="m125.55999,200.69988c-12.42906,5.009 -3.43284,23.345 8.8953,18.175c11.8385,-4.965 2.6671,-22.834 -8.8953,-18.175z"/></svg>